<svg aria-hidden="true" style="position: absolute; width: 0; height: 0; overflow: hidden;" version="1.1" xmlns="http://www.w3.org/2000/svg" xmlns:xlink="http://www.w3.org/1999/xlink">
<defs>
<symbol id="icon-github" viewBox="0 0 31 32">
<path d="M15.969 4.127c-3.057-0-6.014 1.087-8.342 3.068s-3.875 4.725-4.365 7.742c-0.489 3.017 0.111 6.11 1.694 8.725s4.044 4.581 6.944 5.547c0.645 0.116 0.876-0.28 0.876-0.621 0-0.306-0.010-1.116-0.014-2.194-3.581 0.774-4.337-1.726-4.337-1.726-0.236-0.778-0.742-1.446-1.428-1.883-1.161-0.799 0.089-0.781 0.089-0.781 0.826 0.114 1.555 0.603 1.97 1.326 0.174 0.317 0.41 0.596 0.693 0.822s0.608 0.393 0.955 0.492c0.348 0.099 0.712 0.129 1.071 0.087s0.707-0.155 1.022-0.332c0.059-0.653 0.351-1.263 0.819-1.721-2.857-0.324-5.861-1.428-5.861-6.361-0.016-1.276 0.458-2.509 1.324-3.447-0.392-1.111-0.346-2.329 0.129-3.406 0 0 1.080-0.347 3.538 1.317 2.108-0.578 4.333-0.578 6.441 0 2.459-1.666 3.538-1.317 3.538-1.317 0.477 1.077 0.523 2.297 0.129 3.406 0.869 0.937 1.342 2.174 1.321 3.452 0 4.946-3.006 6.032-5.874 6.351 0.619 0.632 0.935 1.499 0.871 2.382 0 1.721-0.015 3.11-0.015 3.532 0 0.345 0.23 0.745 0.887 0.618 2.899-0.968 5.359-2.935 6.94-5.55s2.18-5.708 1.69-8.724-2.038-5.76-4.366-7.74c-2.328-1.98-5.285-3.066-8.341-3.066v0z"></path>
</symbol>
<symbol id="icon-linkedin" viewBox="0 0 31 32">
<path d="M12.683 12.087h4.792v2.387c0.69-1.373 2.461-2.606 5.12-2.606 5.098 0 6.308 2.733 6.308 7.747v9.286h-5.161v-8.145c0-2.855-0.69-4.466-2.448-4.466-2.437 0-3.45 1.735-3.45 4.465v8.146h-5.161v-16.814zM3.832 28.682h5.161v-16.814h-5.161v16.814zM9.733 6.385c0 0.433-0.086 0.861-0.252 1.26s-0.411 0.761-0.719 1.065c-0.624 0.62-1.469 0.967-2.348 0.965-0.878-0.001-1.721-0.347-2.346-0.964-0.307-0.305-0.55-0.667-0.717-1.067s-0.253-0.827-0.253-1.26c0-0.874 0.348-1.71 0.972-2.326 0.624-0.618 1.467-0.964 2.346-0.964 0.88 0 1.724 0.347 2.347 0.964 0.622 0.617 0.972 1.453 0.972 2.326z"></path>
</symbol>
<symbol id="icon-react" viewBox="0 0 36 32">
<path fill="#00d8ff" style="fill: var(--color1, #00d8ff)" d="M29.566 10.253c-0.378-0.13-0.759-0.25-1.144-0.361 0.065-0.264 0.124-0.525 0.177-0.781 0.866-4.206 0.3-7.594-1.633-8.709-1.854-1.069-4.885 0.046-7.947 2.712-0.302 0.263-0.597 0.534-0.885 0.812-0.193-0.185-0.389-0.366-0.589-0.544-3.209-2.851-6.425-4.052-8.356-2.934-1.852 1.073-2.4 4.258-1.621 8.244 0.078 0.395 0.165 0.787 0.263 1.178-0.455 0.129-0.895 0.267-1.315 0.414-3.762 1.313-6.164 3.369-6.164 5.503 0 2.203 2.579 4.414 6.497 5.754 0.318 0.108 0.638 0.208 0.961 0.301-0.105 0.42-0.198 0.844-0.279 1.269-0.743 3.917-0.163 7.026 1.684 8.093 1.908 1.101 5.109-0.031 8.227-2.758 0.253-0.222 0.5-0.45 0.741-0.684 0.312 0.301 0.632 0.594 0.96 0.877 3.020 2.6 6.002 3.65 7.847 2.581 1.906-1.104 2.525-4.445 1.721-8.509-0.063-0.318-0.134-0.635-0.213-0.95 0.225-0.067 0.445-0.135 0.661-0.207 4.073-1.35 6.724-3.534 6.724-5.767 0-2.141-2.48-4.212-6.317-5.534zM28.682 20.112c-0.194 0.064-0.394 0.126-0.597 0.187-0.45-1.425-1.056-2.939-1.799-4.504 0.709-1.528 1.292-3.023 1.729-4.438 0.363 0.105 0.716 0.216 1.056 0.333 3.288 1.133 5.294 2.807 5.294 4.098 0 1.374-2.166 3.159-5.683 4.325zM27.223 23.006c0.356 1.797 0.406 3.422 0.171 4.693-0.212 1.142-0.637 1.903-1.163 2.207-1.12 0.649-3.514-0.194-6.097-2.418-0.305-0.263-0.603-0.535-0.893-0.815 1.001-1.096 2.002-2.369 2.978-3.784 1.718-0.152 3.34-0.402 4.812-0.742 0.071 0.285 0.135 0.572 0.192 0.86zM12.465 29.794c-1.094 0.387-1.965 0.398-2.492 0.094-1.121-0.647-1.587-3.144-0.951-6.493 0.076-0.396 0.162-0.789 0.259-1.18 1.455 0.322 3.066 0.554 4.788 0.694 0.983 1.384 2.013 2.657 3.050 3.771-0.221 0.213-0.446 0.421-0.677 0.624-1.379 1.206-2.76 2.061-3.978 2.492zM7.34 20.104c-1.733-0.593-3.163-1.363-4.144-2.203-0.881-0.755-1.326-1.505-1.326-2.113 0-1.295 1.929-2.946 5.146-4.069 0.39-0.136 0.799-0.265 1.223-0.385 0.445 1.447 1.028 2.96 1.732 4.491-0.713 1.553-1.305 3.090-1.754 4.554-0.295-0.084-0.587-0.176-0.877-0.275zM9.058 8.401c-0.668-3.415-0.224-5.991 0.892-6.637 1.189-0.689 3.817 0.293 6.588 2.755 0.181 0.161 0.358 0.325 0.533 0.492-1.032 1.109-2.052 2.372-3.027 3.748-1.671 0.155-3.271 0.404-4.741 0.737-0.091-0.363-0.172-0.728-0.244-1.095v-0zM24.385 12.188c-0.347-0.6-0.708-1.193-1.080-1.778 1.134 0.143 2.22 0.334 3.24 0.567-0.306 0.982-0.688 2.009-1.137 3.062-0.328-0.624-0.669-1.24-1.022-1.85zM18.135 6.096c0.7 0.759 1.401 1.606 2.091 2.526-1.399-0.066-2.8-0.066-4.2-0.001 0.69-0.911 1.398-1.757 2.109-2.525zM11.844 12.199c-0.349 0.605-0.683 1.218-1.003 1.839-0.442-1.049-0.82-2.081-1.129-3.077 1.014-0.227 2.095-0.412 3.221-0.553-0.377 0.588-0.74 1.186-1.089 1.791v0zM12.966 21.275c-1.164-0.13-2.261-0.306-3.275-0.527 0.314-1.014 0.7-2.067 1.152-3.139 0.321 0.621 0.657 1.235 1.007 1.84 0.36 0.622 0.733 1.232 1.116 1.826zM18.177 25.585c-0.72-0.777-1.437-1.636-2.138-2.56 0.68 0.027 1.374 0.040 2.079 0.040 0.724 0 1.44-0.016 2.145-0.048-0.692 0.941-1.39 1.801-2.086 2.567zM25.421 17.555c0.475 1.083 0.875 2.131 1.193 3.128-1.030 0.235-2.142 0.425-3.314 0.565 0.376-0.596 0.739-1.199 1.091-1.809 0.357-0.62 0.701-1.248 1.031-1.884zM23.076 18.68c-0.538 0.936-1.107 1.853-1.705 2.752-1.083 0.077-2.168 0.115-3.254 0.114-1.106 0-2.181-0.035-3.217-0.102-0.613-0.897-1.193-1.816-1.737-2.756h0c-0.541-0.935-1.047-1.891-1.516-2.865 0.468-0.974 0.972-1.93 1.511-2.866l-0 0c0.539-0.936 1.114-1.852 1.723-2.745 1.057-0.080 2.14-0.122 3.235-0.122h0c1.1 0 2.185 0.042 3.241 0.123 0.603 0.891 1.174 1.804 1.712 2.735 0.541 0.934 1.052 1.885 1.532 2.853-0.475 0.977-0.984 1.937-1.527 2.878zM26.207 1.718c1.19 0.687 1.652 3.456 0.905 7.087-0.048 0.232-0.101 0.468-0.16 0.707-1.474-0.341-3.075-0.594-4.751-0.751-0.976-1.391-1.988-2.656-3.003-3.751 0.266-0.257 0.539-0.507 0.817-0.75 2.623-2.284 5.075-3.186 6.192-2.542zM18.118 12.612c1.752 0 3.173 1.421 3.173 3.175s-1.421 3.175-3.173 3.175c-1.752 0-3.173-1.421-3.173-3.175s1.421-3.175 3.173-3.175z"></path>
</symbol>
<symbol id="icon-parcel" viewBox="0 0 64 32">
<path fill="#be4248" style="fill: var(--color2, #be4248)" d="M40.461 0c1.482 0 2.506 2.541 2.506 6.221v5.082h-2.541v-3.855c0-0.964-0.212-1.489-0.6-1.489h-2.753c-0.388 0-0.6 0.526-0.6 1.489v16.997c0 0.964 0.212 1.489 0.6 1.489h2.753c0.388 0 0.6-0.525 0.6-1.489v-3.855h2.541v5.082c0 3.68-1.023 6.221-2.506 6.221h-4.023c-1.482 0-2.506-2.541-2.506-6.221v-19.45c-0-3.68 1.023-6.221 2.506-6.221h4.023zM7.287 0.175c1.482 0 2.506 2.541 2.506 6.221v7.973c0 3.68-1.023 6.221-2.506 6.221h-3.953v11.127h-2.541v-31.541l6.494-0zM16.992 0.175l4.094 31.541h-2.735l-0.829-7.097h-4.112l-0.847 7.097h-2.629l4.094-31.541h2.965zM29.238 0.175c1.482 0 2.506 2.541 2.506 6.221v7.404c0 2.979-0.67 5.213-1.729 5.958l2.117 11.959h-2.735l-2.047-11.697h-2.047v11.697h-2.541v-31.542h6.476zM53.536 0.175v5.958h-5.77v6.483h4.676v5.958h-4.676v7.184h5.77v5.958h-8.311v-31.541h8.311zM58.318 0.175v25.583h5.329v5.958h-7.87v-31.541h2.541zM40.143 2.541h-3.388c-1.094 0-1.729 1.577-1.729 4.293v18.224c0 2.716 0.635 4.293 1.729 4.293h3.388c1.094 0 1.729-1.577 1.729-4.293v-1.928h-0.353v1.928c0 2.19-0.494 3.417-1.376 3.417h-3.388c-0.882 0-1.376-1.227-1.376-3.417v-18.224c0-2.19 0.494-3.417 1.376-3.417h3.388c0.882 0 1.376 1.227 1.376 3.417v2.015h0.353v-2.015c0-2.716-0.635-4.293-1.729-4.293h0zM6.97 2.716h-5.082v26.459h0.353v-11.127h4.729c1.094 0 1.729-1.577 1.729-4.293v-6.746c0-2.716-0.635-4.293-1.729-4.293v-0zM16.322 2.716h-1.623l-3.317 26.459h0.335l0.882-7.097h5.788l0.865 7.097h0.335l-3.264-26.46zM28.921 2.716h-5.065v26.459h0.353v-11.652h3.882l2.047 11.653h0.37l-2.047-11.653h0.459c1.094 0 1.729-1.577 1.729-4.293v-6.221c0-2.716-0.635-4.293-1.729-4.293l0-0zM52.442 2.716h-6.123v26.459h6.123v-0.876h-5.77v-12.266h4.676v-0.876h-4.676v-11.565h5.77v-0.876zM57.224 2.716h-0.353v26.459h5.682v-0.876h-5.329v-25.584zM16.11 3.592l2.17 17.611h-5.576l2.206-17.611h1.2zM15.493 7.097l-1.376 11.565h2.717l-1.341-11.565zM6.97 3.592c0.882 0 1.376 1.227 1.376 3.417v6.746c0 2.19-0.494 3.417-1.376 3.417h-4.729v-13.58h4.729zM28.921 3.592c0.882 0 1.376 1.227 1.376 3.417v6.22c0 2.19-0.494 3.417-1.376 3.417h-4.711v-13.055h4.711zM6.652 6.133h-3.317v8.499h3.317c0.388 0 0.6-0.526 0.6-1.489v-5.52c0-0.964-0.212-1.489-0.6-1.489v0zM28.603 6.133h-3.3v8.017h3.3c0.388 0 0.6-0.526 0.6-1.489v-5.038c0-0.964-0.212-1.49-0.6-1.49h-0z"></path>
</symbol>
<symbol id="icon-sass" viewBox="0 0 29 32">
<path fill="#8cc84b" style="fill: var(--color3, #8cc84b)" d="M8.995 19.553c-0.508 0.317-1.272 0.832-1.864 1.392-0.971 0.918-1.174 2.191-0.662 2.488 0.474 0.275 1.58-0.052 2.372-0.917 0.831-0.907 1.174-2.058 0.82-3.363-0.042 0.025-0.082 0.050-0.122 0.073l0.001 0.002-0.054 0.030c-0.207 0.123-0.375 0.225-0.491 0.295v0zM23.257 19.141c-0.288 0.625-0.302 0.826-0.215 0.889 0.417-0.15 1.107-0.511 1.113-1.48 0.001-0.145-0.031-0.301-0.082-0.463-0.446 0.395-0.703 0.809-0.816 1.054zM27.732 17.25c-1.114-0.13-1.984 0.026-2.659 0.308 0.125 0.325 0.221 0.664 0.235 1.006 0.031 0.75-0.484 1.304-1.022 1.7-0.314 0.231-0.648 0.385-0.928 0.478-0.224 0.094-0.522 0.192-0.733 0.149-0.466-0.095-0.714-0.509-0.397-1.423 0.171-0.495 0.665-1.247 1.463-1.896-0.182-0.374-0.384-0.756-0.488-1.106-0.203-0.691-0.265-1.109-0.265-1.109s-0.657 1.364-1.505 2.604c-0.049 0.072-0.098 0.143-0.147 0.213 0.167 0.387 0.298 0.797 0.316 1.21 0.031 0.75-0.293 1.316-0.831 1.711-0.291 0.215-0.602 0.363-0.869 0.458-0.17 0.074-0.517 0.197-1.010 0.23-0.27 0.018-0.529 0.002-0.674-0.108-0.199-0.151-0.223-0.337-0.12-0.591 0.087-0.216 0.741-0.962 1.288-1.615 0.146-0.175 0.287-0.353 0.424-0.535l-0.003-0.007c0 0 0.099-0.128 0.26-0.352-0.2-0.431-0.454-0.88-0.573-1.287-0.203-0.691-0.265-1.109-0.265-1.109s-0.666 1.709-1.36 3.073c-0.537 1.057-0.896 1.697-1.058 1.978l-0.002 0.011c0 0-0.024 0.041-0.066 0.105l-0.031 0.052-0.001-0.005c-0.18 0.266-0.584 0.788-0.986 0.788-1.103 0-0.698-2.242-0.698-2.242s-0.322 0.831-0.686 1.543c-0.296 0.581-0.566 1.073-1.156 1.073-0.17 0-0.439-0.005-0.662-0.217-0.507-0.482-0.894-1.705-0.818-2.652 0.065-0.806 0.189-1.364 0.359-1.829-0.339 0.185-0.675 0.375-1.009 0.57l-0.548 0.323 0.018 0.032c0.453 0.877 0.574 2.798-0.414 4.273s-2.827 2.374-4.618 1.875c-0.578-0.161-1.451-1.358-0.698-3.026 0.664-1.471 3.32-2.862 4.020-3.209l0.192-0.106c-1.395-1.222-4.879-2.87-5.368-5.401-0.138-0.713 0.196-2.417 2.287-4.376 1.759-1.647 4.205-2.909 6.466-3.713 3.797-1.351 7.809-0.554 8.426 1.869 0.607 2.382-1.459 5.232-4.104 6.257-2.362 0.915-4.314 0.77-5.117 0.506-0.912-0.3-1.447-0.902-1.577-1.242-0.051-0.133-0.139-0.357 0-0.434 0.086-0.047 0.12-0.036 0.349 0.217 0.218 0.24 1.094 0.886 2.757 0.699 4.366-0.49 6.995-3.886 6.164-5.714-0.582-1.279-3.947-1.856-8.151 0.241-5.132 2.56-5.41 4.671-5.454 5.473-0.12 2.205 2.718 3.365 4.253 5.005l0.059 0.065c0.287-0.159 0.591-0.326 0.889-0.49 0.614-0.338 1.229-0.675 1.845-1.011 0.54-0.786 1.637-1.654 2.429-1.654 1.266 0 0.831 1.82 0.831 1.82s0.026-0.083 0.060-0.084c0.036-0.001 0.175-0.24 0.566-0.097 0.402 0.148 0.311 0.43 0.313 0.459 0.005 0.056-0.475 1.674-0.674 2.713-0.095 0.495-0.040 0.856-0.012 0.856 0.039 0 0.119-0.126 0.194-0.261l-0.002-0.004c0 0 0.056-0.103 0.15-0.287l0.018-0.039 0.001 0.002c0.155-0.306 0.304-0.616 0.445-0.929 0.351-0.775 1.692-3.768 1.806-4.099s0.173-0.673 0.229-0.82c0.055-0.147 0.529-0.257 1.083-0.253s0.61 0.241 0.614 0.289c0.004 0.049-0.263 0.706-0.325 1.17s-0.002 0.696 0.048 1.085c0.033 0.255 0.192 0.578 0.38 0.944 0.573-0.938 1.582-2.732 1.679-3.234 0.066-0.344 0.173-0.673 0.229-0.82s0.529-0.257 1.083-0.253c0.554 0.004 0.61 0.241 0.614 0.289s-0.264 0.706-0.325 1.17c-0.061 0.463-0.002 0.696 0.048 1.085 0.043 0.333 0.301 0.781 0.556 1.291 0.697-0.344 1.518-0.575 2.479-0.579 0.398-0.002 0.86 0.038 1.098 0.112v-7.669c0-0.541-0.277-1.040-0.745-1.31l-12.502-7.231c-0.229-0.133-0.489-0.203-0.754-0.203s-0.525 0.070-0.754 0.203l-12.467 7.227c-0.468 0.27-0.717 0.77-0.717 1.31v14.468c0 0.54 0.251 1.040 0.718 1.31l12.487 7.233c0.228 0.133 0.487 0.203 0.751 0.203s0.523-0.070 0.751-0.203l12.493-7.233c0.467-0.271 0.74-0.77 0.74-1.31v-5.847c-0.159-0.047-0.391-0.084-0.617-0.11v0zM14.283 16.493c-0.268 0.301-0.725 1.076-0.939 1.724-0.425 1.288-0.241 2.597 0.060 2.676 0.351 0.092 0.928-1.63 1.204-2.303 0.173-0.422 0.845-2.293 0.698-2.543-0.115-0.196-0.592-0.038-1.023 0.446v-0zM19.146 20.834c0 0-0.085 0.080-0.048 0.103 0.050 0.030 0.157-0.009 0.274-0.070 0.331-0.208 1.073-0.728 1.074-1.496 0-0.023-0.001-0.044-0.002-0.067-0.153 0.201-0.309 0.401-0.468 0.598-0.234 0.291-0.83 0.933-0.83 0.933z"></path>
</symbol>
<symbol id="icon-html5" viewBox="0 0 23 32">
<path fill="#e44d26" style="fill: var(--color4, #e44d26)" d="M23.16 6.273l-2.059 23.079-9.254 2.567-9.229-2.564-2.057-23.082h22.598z"></path>
<path fill="#f16529" style="fill: var(--color5, #f16529)" d="M11.861 29.957l7.478-2.075 1.759-19.722h-9.237v21.797z"></path>
<path fill="#ebebeb" style="fill: var(--color6, #ebebeb)" d="M7.859 13.822h4.002v-2.831h-7.094l0.068 0.759 0.695 7.801h6.331v-2.831h-3.744l-0.259-2.899zM8.497 20.968h-2.84l0.396 4.445 5.795 1.61 0.013-0.004v-2.945l-0.012 0.003-3.151-0.851-0.201-2.258z"></path>
<path fill="#000" style="fill: var(--color7, #000)" d="M2.665 0h1.438v1.421h1.315v-1.421h1.438v4.304h-1.438v-1.441h-1.315v1.441h-1.438v-4.304h-0zM8.746 1.427h-1.265v-1.427h3.97v1.427h-1.266v2.877h-1.438v-2.877h-0zM12.080 0h1.499l0.922 1.512 0.921-1.512h1.5v4.304h-1.432v-2.133l-0.989 1.53h-0.025l-0.99-1.53v2.133h-1.407v-4.304zM17.638 0h1.438v2.882h2.022v1.423h-3.46v-4.304h0z"></path>
<path fill="#fff" style="fill: var(--color8, #fff)" d="M11.852 19.552h3.484l-0.328 3.672-3.155 0.852v2.945l5.8-1.608 0.043-0.478 0.665-7.453 0.069-0.76h-6.576v2.831zM11.852 13.815v0.007h6.834l0.057-0.636 0.129-1.435 0.068-0.759h-7.087v2.824z"></path>
</symbol>
<symbol id="icon-css3" viewBox="0 0 23 32">
<path fill="#264de4" style="fill: var(--color9, #264de4)" d="M11.794 31.919l-9.229-2.564-2.057-23.082h22.598l-2.059 23.079-9.254 2.567z"></path>
<path fill="#2965f1" style="fill: var(--color10, #2965f1)" d="M19.286 27.882l1.759-19.722h-9.237v21.797l7.478-2.075z"></path>
<path fill="#ebebeb" style="fill: var(--color6, #ebebeb)" d="M5.224 16.721l0.254 2.831h6.331v-2.831h-6.584zM4.714 10.991l0.257 2.831h6.837v-2.831h-7.094zM11.808 24.074l-0.012 0.003-3.151-0.851-0.201-2.258h-2.84l0.396 4.445 5.795 1.61 0.013-0.004v-2.945z"></path>
<path fill="#000" style="fill: var(--color7, #000)" d="M5.827 0h3.426v1.434h-1.993v1.434h1.994v1.434h-3.427v-4.302zM9.939 0h3.426v1.247h-1.994v0.249h1.994v2.868h-3.426v-1.309h1.994v-0.249h-1.994v-2.805h0zM14.051 0h3.426v1.247h-1.994v0.249h1.994v2.868h-3.426v-1.309h1.994v-0.249h-1.993v-2.805h-0z"></path>
<path fill="#fff" style="fill: var(--color8, #fff)" d="M18.374 16.721l0.511-5.73h-7.087v2.831h3.986l-0.257 2.899h-3.729v2.831h3.484l-0.328 3.672-3.155 0.852v2.945l5.8-1.608 0.043-0.478 0.665-7.453 0.069-0.76z"></path>
</symbol>
<symbol id="icon-js" viewBox="0 0 33 32">
<path fill="#f5de19" style="fill: var(--color11, #f5de19)" d="M19.148 19.7c0.31 0.629 0.791 1.157 1.388 1.525s1.285 0.559 1.986 0.553c1.417 0 2.322-0.709 2.322-1.688 0-1.173-0.93-1.589-2.489-2.272l-0.855-0.367c-2.467-1.052-4.107-2.37-4.107-5.156 0-2.567 1.955-4.52 5.009-4.52 0.991-0.072 1.982 0.15 2.847 0.638s1.569 1.221 2.020 2.107l-2.663 1.711c-0.174-0.439-0.478-0.814-0.871-1.076s-0.856-0.398-1.328-0.391c-0.206-0.021-0.413 0.002-0.61 0.066s-0.378 0.168-0.532 0.306c-0.154 0.138-0.278 0.307-0.363 0.495s-0.13 0.393-0.132 0.6c0 1.027 0.636 1.442 2.099 2.078l0.855 0.366c2.906 1.247 4.546 2.518 4.546 5.376 0 3.081-2.418 4.769-5.667 4.769-1.265 0.081-2.527-0.207-3.633-0.828s-2.008-1.549-2.599-2.672l2.777-1.62zM7.068 20c0.538 0.954 1.026 1.76 2.199 1.76 1.123 0 1.833-0.44 1.833-2.15v-11.635h3.42v11.683c0 3.543-2.077 5.156-5.106 5.156-1.070 0.058-2.133-0.21-3.048-0.768s-1.641-1.38-2.080-2.358l2.784-1.688z"></path>
</symbol>
<symbol id="icon-Vector-2" viewBox="0 0 38 32">
<path fill="#22ffca" style="fill: var(--color12, #22ffca)" opacity="0.3" d="M1.756 4.293l-1.672 0.697v7.136c0 0-0.782 2.704 0 3.401s-4.251 16.334 0.39 16.111c4.641-0.223 8.836 0 14.355 0s11.37 1.528 15.768-2.316c4.398-3.844 3.265-4.006 4.965-7.465s2.401-3.955 1.7-7.103c-0.702-3.148-1.592-4.29-3.832-7.103s-4.506-3.148-7.447-5.237c-2.941-2.089-7.447-2.451-10.82-2.34s-13.407 4.219-13.407 4.219z"></path>
</symbol>
<symbol id="icon-telegram" viewBox="0 0 31 32">
<path d="M15.484 4.127c-2.45 0-4.845 0.726-6.882 2.088s-3.625 3.296-4.562 5.559-1.183 4.754-0.705 7.157c0.478 2.403 1.658 4.61 3.39 6.342s3.94 2.912 6.342 3.39 4.894 0.233 7.157-0.705c2.263-0.938 4.198-2.525 5.559-4.562s2.088-4.432 2.088-6.882c0-1.627-0.32-3.237-0.943-4.74s-1.535-2.868-2.685-4.019-2.516-2.063-4.019-2.685c-1.503-0.623-3.114-0.943-4.74-0.943zM19.423 22.896c-0.046 0.116-0.117 0.22-0.207 0.306s-0.197 0.152-0.315 0.194c-0.118 0.041-0.243 0.057-0.367 0.046s-0.244-0.049-0.353-0.11l-3.363-2.614-2.158 1.992c-0.050 0.037-0.109 0.061-0.17 0.069s-0.124 0.001-0.183-0.021l0.414-3.703 0.012 0.011 0.009-0.073c0 0 6.051-5.51 6.298-5.744 0.25-0.234 0.167-0.285 0.167-0.285 0.015-0.285-0.447 0-0.447 0l-8.018 5.158-3.338-1.137c0 0-0.513-0.183-0.561-0.588-0.051-0.401 0.577-0.619 0.577-0.619l13.275-5.274c0 0 1.091-0.486 1.091 0.32l-2.363 12.072z"></path>
</symbol>
<symbol id="icon-rest-api" viewBox="0 0 33 32">
<path fill="#01b5e6" style="fill: var(--color13, #01b5e6)" d="M26.568 6.394c-0.165-0.202-0.472-0.24-0.687-0.085l-0.601 0.428c-0.262-0.206-0.553-0.381-0.871-0.518l0.112-0.767c0.038-0.251-0.15-0.484-0.418-0.518l-1.014-0.13c-0.267-0.034-0.515 0.144-0.551 0.395l-0.103 0.702c-0.346 0.029-0.685 0.101-1.002 0.213l-0.499-0.617c-0.162-0.202-0.47-0.24-0.685-0.087l-0.814 0.581c-0.215 0.152-0.255 0.442-0.093 0.641l0.456 0.565c-0.217 0.244-0.403 0.52-0.549 0.816l-0.816-0.105c-0.267-0.034-0.513 0.141-0.551 0.392l-0.138 0.953c-0.038 0.251 0.15 0.484 0.418 0.518l0.747 0.096c0.031 0.325 0.107 0.641 0.227 0.942l-0.656 0.469c-0.215 0.152-0.255 0.442-0.093 0.644l0.618 0.765c0.162 0.202 0.47 0.24 0.685 0.087l0.601-0.428c0.26 0.204 0.554 0.379 0.868 0.516l-0.112 0.767c-0.036 0.251 0.15 0.484 0.417 0.518l1.014 0.13c0.267 0.034 0.515-0.141 0.551-0.392l0.103-0.702c0.348-0.029 0.685-0.101 1.004-0.213l0.499 0.617c0.162 0.2 0.47 0.24 0.685 0.087l0.814-0.581c0.215-0.152 0.258-0.442 0.095-0.644l-0.458-0.565c0.219-0.244 0.405-0.518 0.551-0.816l0.816 0.105c0.267 0.036 0.515-0.141 0.551-0.392l0.138-0.953c0.036-0.251-0.15-0.484-0.418-0.518l-0.747-0.096c-0.031-0.325-0.107-0.643-0.227-0.942l0.656-0.469c0.215-0.152 0.255-0.442 0.093-0.644l-0.618-0.765zM9.124 19.849v-3.7h2.028c0.377 0 0.663 0.029 0.861 0.092 0.198 0.061 0.36 0.173 0.48 0.336 0.122 0.166 0.184 0.365 0.184 0.601 0 0.204-0.048 0.383-0.141 0.531-0.093 0.15-0.222 0.271-0.384 0.363-0.103 0.058-0.246 0.108-0.427 0.146 0.146 0.047 0.251 0.090 0.315 0.137 0.045 0.031 0.11 0.096 0.193 0.195s0.141 0.177 0.169 0.231l0.592 1.070h-1.374l-0.649-1.128c-0.084-0.146-0.155-0.242-0.22-0.285-0.088-0.056-0.188-0.085-0.298-0.085h-0.107v1.498h-1.221v-0.002zM13.413 26.291h-2.271l-0.327 1.004h-2.047l2.44-6.096h2.195l2.431 6.096h-2.099l-0.322-1.004zM12.989 24.97l-0.709-2.193-0.711 2.193h1.419zM16.307 21.199h3.335c0.728 0 1.272 0.162 1.632 0.486s0.542 0.789 0.542 1.388c0 0.617-0.198 1.099-0.592 1.446s-0.997 0.52-1.806 0.52h-1.1v2.256h-2.011v-6.096zM18.318 23.804h0.494c0.389 0 0.663-0.063 0.821-0.191 0.157-0.126 0.236-0.289 0.236-0.484 0-0.191-0.069-0.354-0.205-0.486s-0.394-0.2-0.771-0.2h-0.575v1.361zM22.627 21.199h2.011v6.096h-2.011v-6.096zM10.345 17.652h0.513c0.055 0 0.162-0.018 0.322-0.052 0.081-0.016 0.148-0.054 0.198-0.117 0.052-0.063 0.076-0.134 0.076-0.215 0-0.119-0.041-0.213-0.122-0.276-0.081-0.065-0.231-0.096-0.453-0.096h-0.534v0.756zM13.227 16.149h3.256v0.789h-2.035v0.59h1.887v0.753h-1.887v0.729h2.095v0.836h-3.316v-3.697zM16.832 18.625l1.155-0.067c0.024 0.177 0.076 0.309 0.153 0.401 0.126 0.148 0.305 0.224 0.537 0.224 0.172 0 0.308-0.038 0.401-0.114s0.141-0.166 0.141-0.267c0-0.096-0.045-0.182-0.134-0.258s-0.296-0.146-0.623-0.215c-0.532-0.112-0.911-0.262-1.14-0.448s-0.343-0.424-0.343-0.713c0-0.191 0.060-0.37 0.176-0.538s0.293-0.303 0.53-0.399c0.236-0.096 0.558-0.144 0.969-0.144 0.503 0 0.885 0.087 1.15 0.265 0.262 0.177 0.42 0.455 0.47 0.841l-1.143 0.065c-0.031-0.168-0.096-0.292-0.191-0.365-0.098-0.076-0.234-0.114-0.403-0.114-0.141 0-0.248 0.029-0.32 0.085s-0.107 0.126-0.107 0.206c0 0.058 0.031 0.11 0.088 0.159 0.057 0.047 0.191 0.094 0.405 0.137 0.532 0.108 0.914 0.218 1.143 0.327s0.398 0.247 0.501 0.41c0.105 0.162 0.157 0.345 0.157 0.547 0 0.238-0.069 0.455-0.21 0.655-0.138 0.2-0.334 0.352-0.584 0.455s-0.565 0.155-0.947 0.155c-0.668 0-1.133-0.121-1.391-0.363-0.258-0.247-0.403-0.554-0.439-0.926zM20.58 16.149h3.7v0.915h-1.241v2.785h-1.217v-2.785h-1.243v-0.915zM16.486 7.369c-0.437-0.031-0.878-0.027-1.314 0.013-1.343 0.121-2.648 0.581-3.726 1.368-1.248 0.908-2.195 2.267-2.56 4.067l-0.115 0.563-0.596 0.099c-0.584 0.096-1.107 0.229-1.565 0.397-0.444 0.161-0.84 0.361-1.186 0.596-0.277 0.188-0.515 0.399-0.718 0.628-0.627 0.706-0.918 1.592-0.911 2.489 0.007 0.91 0.322 1.83 0.904 2.585 0.217 0.28 0.468 0.538 0.754 0.762 0.291 0.226 0.618 0.415 0.985 0.556 0.208 0.081 0.429 0.148 0.661 0.202v1.679c-0.477-0.081-0.916-0.202-1.326-0.361-0.542-0.211-1.021-0.482-1.443-0.814-0.401-0.314-0.752-0.67-1.050-1.058-0.795-1.031-1.224-2.292-1.233-3.547-0.010-1.269 0.41-2.531 1.317-3.554 0.293-0.332 0.639-0.637 1.035-0.906 0.46-0.314 0.988-0.579 1.584-0.796 0.41-0.15 0.849-0.276 1.312-0.377 0.525-1.96 1.644-3.469 3.082-4.516 1.346-0.98 2.965-1.552 4.633-1.702 0.876-0.079 1.763-0.043 2.631 0.11-0.019 0.074-0.036 0.148-0.045 0.224l-0.002 0.013c-0.017 0.128-0.024 0.256-0.017 0.386-0.184 0.067-0.355 0.159-0.511 0.271l-0.007 0.004c-0.231 0.164-0.427 0.374-0.573 0.617zM29.109 11.674c0.134 0.114 0.262 0.233 0.389 0.361 0.255 0.258 0.496 0.549 0.723 0.874 0.763 1.103 1.155 2.576 1.138 4.018-0.017 1.415-0.422 2.823-1.253 3.859-0.542 0.675-1.236 1.226-2.068 1.664-0.57 0.3-1.212 0.549-1.911 0.751v-1.738c0.377-0.132 0.728-0.28 1.050-0.448 0.627-0.33 1.14-0.731 1.524-1.213 0.596-0.747 0.89-1.803 0.902-2.886 0.014-1.137-0.282-2.278-0.856-3.108-0.165-0.24-0.346-0.455-0.537-0.648-0.074-0.074-0.148-0.143-0.224-0.211 0.012-0.112 0.017-0.226 0.010-0.341 0.184-0.067 0.355-0.159 0.511-0.271l0.007-0.004c0.246-0.177 0.451-0.401 0.596-0.659zM23.059 7.67c1.1 0.141 1.868 1.094 1.718 2.128s-1.164 1.758-2.264 1.617c-1.1-0.141-1.87-1.094-1.718-2.128s1.164-1.758 2.264-1.617z"></path>
</symbol>
<symbol id="icon-git" viewBox="0 0 33 32">
<path fill="#dc0101" style="fill: var(--color14, #dc0101)" d="M3.894 14.12l7.701-7.72 2.252 2.267c-0.32 1.133 0.2 2.373 1.239 2.973v7.387c-0.799 0.453-1.332 1.32-1.332 2.307 0 0.707 0.281 1.386 0.78 1.886s1.178 0.781 1.884 0.781 1.385-0.281 1.884-0.781c0.5-0.5 0.781-1.178 0.781-1.886 0-0.987-0.533-1.853-1.332-2.307v-6.48l2.758 2.787c-0.093 0.2-0.093 0.427-0.093 0.667 0 0.707 0.281 1.386 0.78 1.886s1.178 0.781 1.884 0.781c0.707 0 1.385-0.281 1.884-0.781s0.781-1.178 0.781-1.886c0-0.707-0.281-1.386-0.781-1.886s-1.178-0.781-1.884-0.781c-0.24 0-0.466 0-0.666 0.093l-3.424-3.427c0.165-0.618 0.101-1.274-0.181-1.848s-0.762-1.026-1.352-1.272c-0.573-0.213-1.173-0.267-1.706-0.12l-2.265-2.253 1.053-1.040c1.039-1.053 2.718-1.053 3.757 0l10.646 10.653c1.053 1.040 1.053 2.72 0 3.76l-10.646 10.653c-1.039 1.053-2.718 1.053-3.757 0l-10.646-10.653c-1.053-1.040-1.053-2.72 0-3.76z"></path>
</symbol>
<symbol id="icon-webpack" viewBox="0 0 29 32">
<path fill="#fff" style="fill: var(--color8, #fff)" d="M14.587 0.005l14.114 7.989v15.984l-14.114 7.99-14.115-7.99v-15.984l14.115-7.989z"></path>
<path fill="#8ed6fb" style="fill: var(--color15, #8ed6fb)" d="M26.182 23.425l-11.126 6.305v-4.903l6.935-3.821 4.192 2.42zM26.943 22.737v-13.175l-4.069 2.35v8.474l4.069 2.351zM2.949 23.425l11.127 6.3v-4.903l-6.935-3.816-4.192 2.42zM2.187 22.737v-13.175l4.069 2.35v8.474l-4.069 2.351zM2.661 8.709l11.414-6.46v4.744l-7.372 4.056-4.042-2.34zM26.464 8.709l-11.409-6.46v4.744l7.366 4.061 4.043-2.345z"></path>
<path fill="#1c78c0" style="fill: var(--color16, #1c78c0)" d="M14.075 23.707l-6.839-3.768v-7.456l6.839 3.949v7.275zM15.055 23.707l6.839-3.763v-7.462l-6.839 3.949v7.275zM7.694 11.619l6.871-3.779 6.865 3.779-6.865 3.966-6.871-3.966z"></path>
</symbol>
<symbol id="icon-redux" viewBox="0 0 34 32">
<path fill="#764abc" style="fill: var(--color17, #764abc)" d="M21.523 20.597c0.834-0.093 1.467-0.87 1.438-1.802s-0.748-1.677-1.611-1.677h-0.058c-0.892 0.031-1.582 0.839-1.553 1.802 0.029 0.466 0.201 0.87 0.46 1.149-0.978 2.081-2.474 3.603-4.718 4.877-1.525 0.87-3.107 1.18-4.689 0.963-1.294-0.186-2.301-0.808-2.934-1.833-0.92-1.522-1.007-3.168-0.23-4.815 0.547-1.18 1.41-2.050 1.956-2.485-0.115-0.404-0.288-1.087-0.374-1.584-4.171 3.261-3.74 7.672-2.474 9.753 0.949 1.553 2.877 2.516 5.005 2.516 0.575 0 1.151-0.062 1.726-0.217 3.682-0.777 6.472-3.137 8.055-6.647zM26.586 16.745c-2.186-2.765-5.408-4.287-9.090-4.287h-0.46c-0.259-0.559-0.806-0.932-1.41-0.932h-0.058c-0.892 0.031-1.582 0.839-1.553 1.802 0.029 0.932 0.748 1.677 1.611 1.677h0.057c0.633-0.031 1.179-0.466 1.41-1.056h0.518c2.186 0 4.257 0.683 6.127 2.019 1.438 1.025 2.474 2.361 3.049 3.976 0.489 1.305 0.46 2.578-0.058 3.665-0.805 1.646-2.157 2.547-3.941 2.547-1.151 0-2.244-0.373-2.819-0.652-0.316 0.311-0.892 0.808-1.294 1.118 1.237 0.621 2.503 0.963 3.711 0.963 2.762 0 4.804-1.646 5.581-3.293 0.834-1.802 0.777-4.908-1.381-7.548zM11.973 21.125c0.029 0.932 0.748 1.677 1.611 1.677h0.058c0.892-0.031 1.582-0.839 1.553-1.802-0.029-0.932-0.748-1.677-1.611-1.677h-0.057c-0.058 0-0.144 0-0.201 0.031-1.179-2.112-1.668-4.411-1.496-6.896 0.115-1.864 0.69-3.479 1.697-4.815 0.834-1.149 2.445-1.708 3.538-1.739 3.049-0.062 4.344 4.038 4.43 5.684 0.374 0.093 1.007 0.311 1.438 0.466-0.345-5.032-3.222-7.641-5.983-7.641-2.589 0-4.977 2.019-5.926 5.001-1.323 3.976-0.46 7.797 1.151 10.81-0.144 0.217-0.23 0.559-0.201 0.901v-0z"></path>
</symbol>
<symbol id="icon-close_menu" viewBox="0 0 32 32">
<path d="M23.734 10.304l-1.504-1.504-5.963 5.962-5.962-5.962-1.504 1.504 5.962 5.962-5.962 5.963 1.504 1.504 5.962-5.963 5.963 5.963 1.504-1.504-5.963-5.963 5.963-5.962z"></path>
</symbol>
<symbol id="icon-nodejs" viewBox="0 0 53 32">
<path fill="#539e43" style="fill: var(--color1, #539e43)" d="M26.489 31.733c-0.176 0-0.339-0.047-0.492-0.129l-1.557-0.925c-0.234-0.129-0.117-0.176-0.047-0.199 0.316-0.105 0.375-0.129 0.702-0.316 0.035-0.024 0.082-0.012 0.117 0.012l1.194 0.715c0.047 0.023 0.105 0.023 0.14 0l4.671-2.706c0.047-0.023 0.070-0.070 0.070-0.129v-5.4c0-0.059-0.024-0.105-0.070-0.129l-4.671-2.694c-0.047-0.024-0.105-0.024-0.14 0l-4.671 2.694c-0.047 0.023-0.070 0.082-0.070 0.129v5.4c0 0.047 0.024 0.105 0.070 0.129l1.276 0.738c0.691 0.351 1.124-0.059 1.124-0.469v-5.33c0-0.070 0.058-0.141 0.14-0.141h0.597c0.070 0 0.14 0.059 0.14 0.141v5.33c0 0.925-0.503 1.464-1.381 1.464-0.269 0-0.48 0-1.077-0.293l-1.229-0.703c-0.304-0.176-0.492-0.504-0.492-0.855v-5.4c0-0.351 0.187-0.679 0.492-0.855l4.671-2.706c0.293-0.164 0.691-0.164 0.983 0l4.671 2.706c0.304 0.176 0.492 0.504 0.492 0.855v5.4c0 0.351-0.187 0.679-0.492 0.855l-4.671 2.706c-0.152 0.070-0.328 0.105-0.492 0.105h-0zM27.929 28.019c-2.048 0-2.47-0.937-2.47-1.734 0-0.070 0.059-0.141 0.14-0.141h0.609c0.070 0 0.129 0.047 0.129 0.117 0.094 0.621 0.363 0.925 1.604 0.925 0.983 0 1.405-0.223 1.405-0.75 0-0.305-0.117-0.527-1.651-0.679-1.276-0.129-2.072-0.41-2.072-1.429 0-0.949 0.796-1.511 2.13-1.511 1.498 0 2.236 0.515 2.329 1.64 0 0.035-0.012 0.070-0.035 0.105-0.024 0.023-0.059 0.047-0.094 0.047h-0.609c-0.059 0-0.117-0.047-0.129-0.105-0.14-0.644-0.503-0.855-1.463-0.855-1.077 0-1.206 0.375-1.206 0.656 0 0.34 0.152 0.445 1.604 0.633 1.44 0.188 2.119 0.457 2.119 1.464-0.012 1.031-0.855 1.617-2.341 1.617z"></path>
<path fill="#333" style="fill: var(--color2, #333)" d="M11.997 10.613c0-0.211-0.117-0.41-0.304-0.515l-4.963-2.858c-0.082-0.047-0.176-0.070-0.269-0.082h-0.047c-0.094 0-0.187 0.035-0.269 0.082l-4.963 2.858c-0.187 0.105-0.304 0.305-0.304 0.515l0.012 7.684c0 0.105 0.059 0.211 0.152 0.258 0.094 0.059 0.211 0.059 0.293 0l2.95-1.687c0.187-0.105 0.304-0.305 0.304-0.515v-3.596c0-0.211 0.117-0.41 0.304-0.515l1.252-0.726c0.094-0.059 0.199-0.082 0.304-0.082s0.211 0.024 0.293 0.082l1.252 0.726c0.187 0.105 0.304 0.304 0.304 0.515v3.596c0 0.211 0.117 0.41 0.304 0.515l2.95 1.687c0.046 0.029 0.098 0.044 0.152 0.044s0.107-0.015 0.152-0.044c0.094-0.047 0.152-0.152 0.152-0.258l-0.012-7.684zM35.853 0.035c-0.094-0.047-0.211-0.047-0.293 0-0.094 0.059-0.152 0.152-0.152 0.258v7.614c0 0.070-0.035 0.14-0.105 0.187-0.070 0.035-0.14 0.035-0.211 0l-1.241-0.715c-0.091-0.052-0.194-0.079-0.299-0.079s-0.207 0.027-0.298 0.079l-4.963 2.87c-0.187 0.105-0.304 0.305-0.304 0.515v5.728c0 0.211 0.117 0.41 0.304 0.515l4.963 2.87c0.091 0.052 0.194 0.079 0.298 0.079s0.208-0.027 0.299-0.079l4.963-2.87c0.187-0.105 0.304-0.305 0.304-0.515v-14.279c0-0.223-0.117-0.422-0.304-0.527l-2.962-1.652zM35.397 14.607c0 0.059-0.023 0.105-0.070 0.129l-1.697 0.984c-0.024 0.012-0.050 0.018-0.076 0.018s-0.052-0.006-0.076-0.018l-1.697-0.984c-0.047-0.023-0.070-0.082-0.070-0.129v-1.968c0-0.059 0.023-0.105 0.070-0.129l1.697-0.984c0.024-0.012 0.050-0.018 0.076-0.018s0.052 0.006 0.076 0.018l1.697 0.984c0.047 0.023 0.070 0.082 0.070 0.129v1.968zM52.37 12.592c0.187-0.105 0.293-0.305 0.293-0.515v-1.394c0-0.211-0.117-0.41-0.293-0.515l-4.928-2.858c-0.091-0.052-0.194-0.079-0.299-0.079s-0.208 0.027-0.299 0.079l-4.963 2.87c-0.187 0.105-0.304 0.305-0.304 0.515v5.728c0 0.211 0.117 0.41 0.304 0.515l4.928 2.811c0.187 0.105 0.41 0.105 0.585 0l2.985-1.663c0.094-0.047 0.152-0.152 0.152-0.258s-0.059-0.211-0.152-0.258l-4.987-2.87c-0.094-0.059-0.152-0.152-0.152-0.258v-1.792c0-0.105 0.058-0.211 0.152-0.258l1.557-0.89c0.046-0.029 0.098-0.044 0.152-0.044s0.107 0.015 0.152 0.044l1.557 0.89c0.094 0.059 0.152 0.152 0.152 0.258v1.406c0 0.105 0.059 0.211 0.152 0.258 0.046 0.029 0.098 0.044 0.152 0.044s0.107-0.015 0.152-0.044l2.95-1.722z"></path>
<path fill="#539e43" style="fill: var(--color1, #539e43)" d="M47.068 12.323c0.017-0.011 0.038-0.018 0.058-0.018s0.041 0.006 0.059 0.018l0.948 0.551c0.035 0.023 0.058 0.059 0.058 0.105v1.101c0 0.047-0.023 0.082-0.058 0.105l-0.948 0.551c-0.017 0.011-0.038 0.018-0.059 0.018s-0.041-0.006-0.058-0.018l-0.948-0.551c-0.035-0.023-0.059-0.059-0.059-0.105v-1.101c0-0.047 0.023-0.082 0.059-0.105l0.948-0.551z"></path>
<path fill="#000" style="fill: var(--color3, #000)" d="M20.296 7.333c-0.091-0.052-0.194-0.079-0.298-0.079s-0.208 0.027-0.298 0.079l-4.928 2.846c-0.187 0.105-0.293 0.305-0.293 0.515v5.705c0 0.211 0.117 0.41 0.293 0.515l4.928 2.846c0.091 0.052 0.194 0.079 0.298 0.079s0.207-0.027 0.298-0.079l4.928-2.846c0.187-0.105 0.293-0.305 0.293-0.515v-5.705c0-0.211-0.117-0.41-0.293-0.515l-4.928-2.846z"></path>
</symbol>
</defs>
</svg>
